<?xml version="1.0" standalone="no"?>
<!DOCTYPE svg PUBLIC "-//W3C//DTD SVG 20010904//EN"
 "http://www.w3.org/TR/2001/REC-SVG-20010904/DTD/svg10.dtd">
<svg version="1.0" xmlns="http://www.w3.org/2000/svg"
 width="535.000000pt" height="535.000000pt" viewBox="0 0 535.000000 535.000000"
 preserveAspectRatio="xMidYMid meet">
<metadata>
Created by potrace 1.14, written by Peter Selinger 2001-2017
</metadata>
<g transform="translate(0.000000,535.000000) scale(0.100000,-0.100000)"
fill="#000000" stroke="none">
<path d="M3526 3914 c-370 -67 -657 -275 -820 -594 -91 -178 -131 -337 -142
-570 -23 -452 130 -843 420 -1076 103 -83 286 -174 417 -208 294 -75 631 -53
884 59 200 89 382 268 474 466 76 163 101 320 101 629 l0 200 -540 0 -540 0 0
-235 0 -235 221 0 221 0 -6 -47 c-10 -69 -60 -167 -104 -201 -88 -69 -196
-102 -342 -102 -208 0 -362 91 -444 263 -113 238 -108 632 10 844 118 212 373
303 613 218 90 -31 173 -114 201 -201 l12 -34 334 0 335 0 -7 48 c-12 84 -62
225 -110 306 -54 92 -187 231 -279 293 -133 89 -292 151 -455 178 -118 19
-347 18 -454 -1z"/>
<path d="M430 3635 l0 -265 365 0 365 0 0 -955 0 -955 330 0 330 0 0 955 0
955 365 0 365 0 0 265 0 265 -1060 0 -1060 0 0 -265z"/>
</g>
</svg>
